<svg width="86" height="64" viewBox="0 0 86 64" fill="none" xmlns="http://www.w3.org/2000/svg">
<path d="M71.576 19.2175C67.2047 8.40992 56.0665 0.722168 43.0194 0.722168C29.9723 0.722168 18.834 8.40098 14.4627 19.2085C6.24506 21.2377 0.193953 28.2729 0.241674 36.6222C0.29894 45.9548 8.02985 53.5442 17.7651 54.3577C18.2137 54.3934 18.5954 54.0627 18.5954 53.6425V48.2432C18.5954 47.8857 18.3091 47.5817 17.9273 47.537C15.3504 47.2331 12.9166 46.1783 11.0459 44.453C8.75522 42.3523 7.49537 39.5275 7.49537 36.5328C7.49537 34.0298 8.3639 31.6699 9.99599 29.7032C11.5899 27.7902 13.8328 26.4046 16.3048 25.7968L19.9221 24.9028L21.2488 21.6221C22.0696 19.584 23.2149 17.671 24.6561 15.9457C26.0782 14.2294 27.7675 12.7276 29.6573 11.4761C33.58 8.89264 38.1995 7.52494 43.0194 7.52494C47.8393 7.52494 52.4587 8.89264 56.3815 11.485C58.2808 12.7365 59.9606 14.2383 61.3827 15.9547C62.8239 17.6799 63.9692 19.5929 64.79 21.6311L66.1071 24.9028L69.7149 25.7968C74.8879 27.084 78.5052 31.4911 78.5052 36.5239C78.5052 39.5275 77.2454 42.3433 74.9547 44.444C73.0936 46.1604 70.6693 47.2241 68.0924 47.5281C67.7106 47.5728 67.4338 47.8767 67.4338 48.2343V53.6425C67.4338 54.0627 67.8251 54.3934 68.2737 54.3577C77.9803 53.5353 85.6921 45.9548 85.7589 36.6401C85.8162 28.2908 79.7746 21.2556 71.576 19.2175Z" fill="white"/>
<path d="M30.1065 44.9363C30.2783 41.9416 31.605 39.1526 33.8765 37.0161C36.3008 34.7366 39.6031 33.4583 43.0391 33.4583C46.4941 33.4583 49.7488 34.7187 52.2017 37.0161C52.3353 37.1413 52.4593 37.2664 52.593 37.4005L50.2069 39.1526C50.0932 39.235 50.0066 39.3457 49.9572 39.4721C49.9077 39.5985 49.8973 39.7354 49.9272 39.8671C49.9572 39.9987 50.0261 40.1198 50.1263 40.2164C50.2264 40.313 50.3536 40.3811 50.4932 40.413L59.8658 42.5584C60.343 42.6657 60.8106 42.326 60.8106 41.8701L60.8584 32.8147C60.8584 32.2157 60.133 31.876 59.6271 32.2515L57.4129 33.8784C53.9196 30.124 48.7848 27.7461 43.0486 27.7461C32.798 27.7461 24.4372 35.3534 24.0172 44.8827C23.9981 45.2849 24.3417 45.6246 24.7808 45.6246H29.3525C29.7534 45.6157 30.0874 45.3207 30.1065 44.9363ZM61.2306 45.6157H56.6589C56.258 45.6157 55.9239 45.9107 55.8953 46.2951C55.7235 49.2897 54.3968 52.0788 52.1253 54.2152C49.701 56.4947 46.3987 57.7731 42.9627 57.7731C39.5077 57.7731 36.2531 56.5126 33.8002 54.2152C33.6666 54.0901 33.5425 53.9649 33.4089 53.8308L35.7949 52.0788C35.9086 51.9964 35.9952 51.8856 36.0446 51.7592C36.0941 51.6328 36.1045 51.4959 36.0746 51.3643C36.0447 51.2326 35.9757 51.1115 35.8756 51.0149C35.7754 50.9184 35.6482 50.8502 35.5086 50.8183L26.1361 48.6729C25.6589 48.5656 25.1912 48.9053 25.1912 49.3612L25.153 58.4256C25.153 59.0245 25.8784 59.3642 26.3842 58.9888L28.5985 57.3618C32.0917 61.1163 37.2266 63.4942 42.9627 63.4942C53.2134 63.4942 61.5742 55.8869 61.9941 46.3576C62.0132 45.9554 61.6696 45.6157 61.2306 45.6157Z" fill="white"/>
</svg>
