<svg width="86" height="82" viewBox="0 0 86 82" fill="none" xmlns="http://www.w3.org/2000/svg">
<path d="M43 0.96167C19.3873 0.96167 0.241333 18.8938 0.241333 41.0095C0.241333 63.1252 19.3873 81.0574 43 81.0574C66.6126 81.0574 85.7586 63.1252 85.7586 41.0095C85.7586 18.8938 66.6126 0.96167 43 0.96167ZM43 74.2635C23.3959 74.2635 7.49503 59.3707 7.49503 41.0095C7.49503 22.6483 23.3959 7.7555 43 7.7555C62.604 7.7555 78.5049 22.6483 78.5049 41.0095C78.5049 59.3707 62.604 74.2635 43 74.2635ZM47.5526 38.9356L45.1283 38.4082V26.4028C48.7552 26.8676 50.9981 28.9952 51.3799 31.6054C51.4276 31.963 51.7521 32.2222 52.1339 32.2222H56.4193C56.8679 32.2222 57.221 31.8557 57.1828 31.4356C56.6006 25.8664 51.7044 22.2907 45.1665 21.6739V18.7508C45.1665 18.3575 44.8229 18.0356 44.403 18.0356H41.721C41.3011 18.0356 40.9575 18.3575 40.9575 18.7508V21.7007C34.2001 22.3175 28.9125 25.8128 28.9125 32.3384C28.9125 38.3814 33.6656 41.2956 38.6573 42.413L41.0147 42.9761V55.7325C36.7961 55.205 34.4291 53.0954 33.9424 50.2527C33.8851 49.913 33.5606 49.6627 33.1884 49.6627H28.7789C28.3303 49.6627 27.9772 50.0203 28.0153 50.4404C28.4448 55.357 32.4248 59.8803 40.9193 60.4613V63.2682C40.9193 63.6616 41.2629 63.9834 41.6828 63.9834H44.3934C44.8134 63.9834 45.157 63.6616 45.157 63.2593L45.1379 60.4256C52.6111 59.8088 57.9559 56.0632 57.9559 49.3409C57.9464 43.1371 53.7373 40.3659 47.5526 38.9356V38.9356ZM41.0052 37.4874C40.4707 37.3444 40.0221 37.2103 39.5735 37.0405C36.3476 35.9499 34.8491 34.1889 34.8491 31.9183C34.8491 28.6733 37.4738 26.8229 41.0052 26.4028V37.4874ZM45.1283 55.7593V43.8075C45.4242 43.888 45.6915 43.9505 45.9682 44.0042C50.4827 45.2914 52.0003 47.0793 52.0003 49.8236C52.0003 53.3189 49.1942 55.4196 45.1283 55.7593Z" fill="white"/>
</svg>
