<svg width="1370" height="2555" viewBox="0 0 1370 2555" fill="none" xmlns="http://www.w3.org/2000/svg">
<path d="M65.0001 0.5C105.608 87.8153 164.51 167.478 268 111.5C315.125 86.0097 455.287 41.2112 551.5 130C613.21 186.948 642.693 390.114 551.5 536.5C460.952 681.851 353 675 308.5 686.5C264 698 43.0519 666.244 136.5 521C228.166 378.526 373.508 512.224 405 568C436.492 623.776 422.356 828.998 349 882.5C275.644 936.002 75.4346 957.291 31.4999 1076.5C-23.2845 1225.15 -19.5044 1428.97 190 1471C384.987 1510.12 468.485 1533.07 752.5 1446C1071.98 1348.06 1324 1503.5 1350 1593.5C1376 1683.5 1426.48 1812.36 1079.5 1846C987 1849.33 784.7 1854 715.5 1846C629 1836 553 1910.5 615.5 1998.5C678 2086.5 758.5 2128 703.5 2333.5C648.5 2539 357.5 2408 226 2425.5C120.8 2439.5 125.5 2493.83 132 2554.5" stroke="#77107C" stroke-opacity="0.75" stroke-width="2" stroke-dasharray="6 6"/>
</svg>
