<svg width="86" height="68" viewBox="0 0 86 68" fill="none" xmlns="http://www.w3.org/2000/svg">
<path d="M85.4616 63.8027L79.6873 44.7531V3.27499C79.6873 1.69274 78.3224 0.414429 76.6331 0.414429H9.44095C7.7516 0.414429 6.38676 1.69274 6.38676 3.27499V44.7531L0.612438 63.8027C-0.103387 65.671 1.36644 67.6376 3.48528 67.6376H82.5887C84.7076 67.6376 86.1774 65.671 85.4616 63.8027ZM13.2587 6.85069H72.8153V42.1607H13.2587V6.85069V6.85069ZM35.0484 61.2013L35.8215 57.8938H50.1666L50.9397 61.2013H35.0484V61.2013ZM56.4277 61.2013L54.6047 53.451C54.5284 53.1203 54.2134 52.8878 53.8603 52.8878H32.1374C31.7747 52.8878 31.4693 53.1203 31.3929 53.451L29.5699 61.2013H8.54378L12.581 47.8819H73.493L77.5302 61.2013H56.4277Z" fill="white"/>
</svg>
